<svg xmlns="http://www.w3.org/2000/svg" width="32" height="32" viewBox="0 0 32 32">
  <rect width="32" height="32" rx="8" fill="#006D77"/>
  <g transform="translate(6, 6)">
    <path d="M10 5.83v11.67" stroke="#ffffff" stroke-width="1.67" stroke-linecap="round" stroke-linejoin="round" fill="none"/>
    <path d="M2.5 15a.83.83 0 0 1-.83-.83V3.33a.83.83 0 0 1 .83-.83h4.17a3.33 3.33 0 0 1 3.33 3.33 3.33 3.33 0 0 1 3.33-3.33h4.17a.83.83 0 0 1 .83.83v10.84a.83.83 0 0 1-.83.83h-5a2.5 2.5 0 0 0-2.5 2.5 2.5 2.5 0 0 0-2.5-2.5z" stroke="#ffffff" stroke-width="1.67" stroke-linecap="round" stroke-linejoin="round" fill="none"/>
  </g>
</svg>
