<?xml version="1.0" encoding="UTF-8"?>
<svg xmlns="http://www.w3.org/2000/svg" xmlns:xlink="http://www.w3.org/1999/xlink" width="1024px" height="1024px" viewBox="0 0 1024 1024" version="1.1">
<g id="surface1">
<path style=" stroke:none;fill-rule:nonzero;fill:rgb(0%,38.039216%,35.294119%);fill-opacity:1;" d="M 228 0 L 796 0 C 921.921875 0 1024 102.078125 1024 228 L 1024 796 C 1024 921.921875 921.921875 1024 796 1024 L 228 1024 C 102.078125 1024 0 921.921875 0 796 L 0 228 C 0 102.078125 102.078125 0 228 0 Z M 228 0 "/>
<path style="fill-rule:nonzero;fill:rgb(100%,100%,100%);fill-opacity:1;stroke-width:6;stroke-linecap:butt;stroke-linejoin:round;stroke:rgb(100%,100%,100%);stroke-opacity:1;stroke-miterlimit:4;" d="M 132.902344 325.414062 L 133.691406 185.617188 L 117.910156 185.617188 L 117.910156 363.496094 C 139.597656 357.894531 161.359375 354.332031 183.277344 354.179688 C 203.511719 354.050781 223.75 356.875 244.035156 363.75 C 231.4375 353.542969 217.386719 346.03125 202.394531 341.144531 C 183.503906 334.984375 163.089844 332.949219 142.167969 334.730469 C 137.433594 335.113281 133.308594 331.601562 132.902344 326.890625 C 132.851562 326.382812 132.851562 325.898438 132.902344 325.414062 Z M 364.488281 178.3125 C 364.4375 177.90625 364.386719 177.472656 364.386719 177.015625 C 364.386719 176.582031 364.410156 176.148438 364.488281 175.714844 L 364.488281 147.410156 C 344.632812 145.527344 324.167969 147.714844 306.296875 154.488281 C 289.601562 160.824219 275.191406 171.238281 265.824219 186.152344 L 265.824219 347.382812 C 280.386719 337.65625 295.277344 329.664062 310.574219 324.21875 C 328.011719 318.007812 345.929688 315.054688 364.488281 316.53125 Z M 381.667969 168.4375 L 404.933594 168.4375 C 409.667969 168.4375 413.511719 172.28125 413.511719 177.015625 L 413.511719 374.695312 C 413.511719 379.429688 409.667969 383.273438 404.933594 383.273438 C 403.96875 383.273438 403.027344 383.121094 402.160156 382.816406 C 378.234375 375.96875 354.457031 371.410156 330.914062 371.257812 C 307.953125 371.105469 285.019531 375.152344 261.980469 385.308594 C 260.554688 386.25 258.851562 386.761719 257.09375 386.734375 C 255.363281 386.761719 253.65625 386.25 252.207031 385.308594 C 229.195312 375.128906 206.238281 371.105469 183.277344 371.257812 C 159.730469 371.410156 135.980469 375.96875 112.027344 382.816406 C 111.164062 383.121094 110.222656 383.273438 109.253906 383.273438 C 104.570312 383.296875 100.726562 379.453125 100.726562 374.71875 L 100.726562 177.015625 C 100.726562 172.28125 104.570312 168.4375 109.304688 168.4375 L 133.765625 168.4375 L 133.921875 139.773438 C 133.945312 135.652344 136.847656 132.238281 140.742188 131.425781 C 163.320312 126.714844 190.761719 127.886719 214.816406 137.101562 C 231.4375 143.464844 246.53125 153.621094 257.550781 168.285156 C 268.675781 154.613281 283.542969 144.789062 300.265625 138.449219 C 323.125 129.769531 349.496094 127.683594 374.3125 131.324219 C 378.589844 131.933594 381.644531 135.625 381.644531 139.800781 L 381.644531 168.4375 Z M 274.148438 362.449219 C 293.113281 356.496094 312.050781 354.050781 330.988281 354.152344 C 352.90625 354.28125 374.667969 357.867188 396.355469 363.46875 L 396.355469 185.617188 L 381.667969 185.617188 L 381.667969 326.179688 C 381.667969 330.914062 377.824219 334.757812 373.089844 334.757812 C 372.402344 334.757812 371.742188 334.679688 371.105469 334.527344 C 352.320312 331.574219 334.121094 334.019531 316.351562 340.355469 C 302.046875 345.472656 287.996094 353.109375 274.148438 362.449219 Z M 248.667969 345.726562 L 248.667969 185.898438 C 239.683594 170.039062 225.148438 159.425781 208.730469 153.136719 C 190.125 146.011719 169.226562 144.40625 151 147.003906 L 150.03125 317.066406 C 169.914062 316.351562 189.359375 318.871094 207.660156 324.855469 C 222.222656 329.589844 236.019531 336.539062 248.667969 345.726562 Z M 248.667969 345.726562 " transform="matrix(2,0,0,2,0,0)"/>
</g>
</svg>
